<?xml version="1.0" encoding="UTF-8"?>
<!DOCTYPE svg PUBLIC "-//W3C//DTD SVG 1.1//EN" "http://www.w3.org/Graphics/SVG/1.1/DTD/svg11.dtd">
<!-- Creator: CorelDRAW -->
<svg xmlns="http://www.w3.org/2000/svg" xml:space="preserve" width="69.5554mm" height="83.3296mm" version="1.1" style="shape-rendering:geometricPrecision; text-rendering:geometricPrecision; image-rendering:optimizeQuality; fill-rule:evenodd; clip-rule:evenodd"
viewBox="0 0 8161.41 9777.63"
 xmlns:xlink="http://www.w3.org/1999/xlink"
 xmlns:xodm="http://www.corel.com/coreldraw/odm/2003">
 <defs>
  <style type="text/css">
   <![CDATA[
    .fil5 {fill:#9D9E9E}
    .fil1 {fill:#2B2A29}
    .fil2 {fill:#FFED00}
    .fil4 {fill:#E31E24}
    .fil3 {fill:#009846}
    .fil6 {fill:#212335}
    .fil7 {fill:#E53926}
    .fil0 {fill:#FEFEFE}
   ]]>
  </style>
 </defs>
 <g id="Layer_x0020_1">
  <metadata id="CorelCorpID_0Corel-Layer"/>
  <path class="fil0" d="M1341.43 6857.96c137.34,-27.52 554.65,-8.68 723.29,-8.47 173.28,0.22 460.17,-43.65 513.25,213.44 15.43,74.72 6.41,610.82 6.54,731.75 0.26,246.23 21.39,462.55 -218.45,511.21 -64.08,13.01 -615.48,4.49 -728.53,4.61 -194.98,0.2 -450.27,46.03 -509.97,-214.13 -27.77,-121.08 -7.94,-573.59 -8.39,-728.88 -0.55,-194.72 -45.51,-455.89 222.26,-509.52zm1785.1 931.92c74.12,-25.79 1920.69,-8.85 2266.24,-10.31 70.53,-0.29 322.01,-8.99 369.8,11.97 91.3,40.06 98.15,199.1 -8.65,236.01 -83.31,28.81 -1319.75,10.03 -1513.55,9.14 -103.87,-0.47 -1071.75,11.36 -1125.33,-9.69 -90.01,-35.38 -104.92,-196.61 11.49,-237.11zm11.43 -645.11c68.72,-19.01 2959.01,-6.37 3178.73,-6.65 178.77,-0.22 357.76,-0.75 536.53,-0.36 90.4,0.19 162.77,6.15 184.59,85.82 22.54,82.32 -16.88,147.02 -83.58,166.09 -51.05,14.6 -923.16,5.24 -1054.8,5.47l-2125.99 0.26c-178.84,0.2 -357.75,-0.36 -536.58,-0.05 -90.94,0.15 -162.64,-4.82 -186.33,-81.5 -18.73,-60.66 -6.72,-143.03 87.43,-169.07zm-1780.5 -2554.97c86.82,-12.45 261.53,-2.02 359.54,-2.23 134.46,-0.28 611.48,-20.42 706.8,25.87 213.29,103.6 160.53,314.83 161.17,568.44 0.35,141.51 18.86,607.58 -26.46,711.17 -35.42,80.95 -118.53,141.33 -208.55,151l-732.3 2.32c-222.51,-0.75 -411.16,37.71 -487.19,-198.76 -25.27,-78.6 -11.83,-638.03 -11.44,-765.07 0.49,-165.02 -43.92,-452.25 238.43,-492.74zm1778.91 935.33c60.19,-18.35 1333.53,-7.65 1511.32,-7.76 112.27,-0.06 1055.64,-14.91 1120.38,13.65 83.83,36.97 86.17,202.29 -20.43,236.14 -62.14,19.74 -1338.7,7.65 -1517.2,7.37 -116.41,-0.19 -1054.92,18.49 -1121.52,-16.94 -79.39,-42.24 -108.92,-190.87 27.45,-232.46zm-12.7 -638.68c78.96,-26.41 3267.14,-8.55 3709.62,-10.13 310.79,-1.11 220.16,215.72 131.11,248.57 -67.23,24.81 -3128.24,10.03 -3707.55,9.36 -97.87,-0.12 -169.9,4.27 -200.83,-70.26 -32.46,-78.21 3.81,-156.19 67.66,-177.54zm-1904.14 -1077.05c-27.73,-15.32 -71.63,-66.27 -76.95,-114.53 -24.27,-31.6 -20.8,-34.79 -22.76,-72.81l3.26 -971.88c16.33,-106.37 75.26,-164.17 147.23,-200.83 102.04,-51.99 528.72,-29.51 675.19,-29.32 118.8,0.14 239.58,-2.87 358.08,-0.32 94.15,2.04 176.99,41.07 233.29,115.07 78.43,103.1 47.52,506.17 47.98,660.2 0.56,185.69 36.48,529.12 -88.71,620.23 -88.2,64.21 -162.5,64.39 -292.34,65l-705.35 0.4c-107.77,0.25 -202.95,12.45 -278.92,-71.21zm1915.14 -450.64c50.15,-15.99 1343.84,-7.01 1513.02,-6.69 118.12,0.22 1057.23,-17.46 1126.37,17.6 88.89,45.08 75.27,202.98 -33.53,232.98 -70.79,19.51 -2020.26,5.06 -2275.04,5.98 -165.87,0.61 -441.23,50.97 -421.78,-145.08 6.03,-60.78 38.72,-88.13 90.96,-104.81zm14.5 -644.57c50.98,-11.64 2978.18,-2.57 3177.46,-2.25 178.77,0.28 358.09,-1.31 536.79,0.26 85.4,0.76 156.79,6.81 174.9,89.35 18.41,83.93 -21.57,147.38 -89.48,161.96 -81.75,17.54 -2950.41,4.06 -3185.32,4.72 -178.83,0.5 -357.75,0.35 -536.57,0.12 -100.65,-0.13 -156,-5.74 -178.25,-93.71 -22.81,-90.27 29.42,-144.23 100.46,-160.45zm2666.86 -1071.95c-3.22,67.55 -56.97,127.31 -94.37,153.49 -54.42,38.08 -110.54,46.08 -189.58,45.75l-2921.38 0.33c-143.73,0.53 -265.31,-90.16 -270.79,-211.77 -23.83,-62.85 -4.66,-254.26 -9.25,-339.34 -275.93,-5.2 -555.84,-0.93 -832.2,-0.88 -379.03,0.06 -765.19,-67 -946.7,311.76 -60.7,126.68 -50.88,217.16 -50.64,361.51l-0.4 5881.24c-0.27,278.12 1.65,556.46 0.45,834.53 -1.03,238.98 75.45,434.24 286.81,550.85 182.45,100.66 543.32,64.22 770.09,64.3 281.47,0.11 562.96,0.19 844.43,0.06l4192.37 -0.25c388.07,0.75 693.18,79.57 946.66,-204.18 14.36,-16.08 31.07,-41.44 43.56,-65.52 63.71,-122.91 76.77,-182 76.49,-335.31l-0.22 -6715.79c-0.33,-201.85 7.84,-329.01 -128.25,-491.24 -25.24,-30.09 -75.42,-81.36 -113.63,-104.38 -208.41,-125.59 -479.53,-87.25 -745.14,-87.4 -276.79,-0.18 -568.3,8.89 -843.17,-0.54 -0.73,74.9 19.45,308.11 -15.14,352.77z"/>
  <path class="fil1" d="M2339.9 1630.04l15.73 -38.15c76.97,112.07 88.33,151.26 295.22,153.61 940.68,10.65 1915.36,-10.9 2861.15,-0.39 100.32,1.13 205.45,-18.02 260.82,-97.01l38.2 -56.66c1.85,-2.16 6.02,-2.37 7.44,-7.45 1.48,-5.27 5.08,-5.24 7.89,-7.58 -3.43,37.25 -7.53,38.01 -10.33,65.84 34.59,-44.66 14.41,-277.88 15.14,-352.77 274.87,9.43 566.38,0.36 843.17,0.54 265.6,0.15 536.72,-38.18 745.14,87.4 38.2,23.02 88.39,74.3 113.63,104.38 136.09,162.23 127.92,289.39 128.25,491.24l0.22 6715.79c0.28,153.31 -12.78,212.4 -76.49,335.31 -12.48,24.08 -29.19,49.45 -43.56,65.52 -253.48,283.74 -558.59,204.93 -946.66,204.18l-4192.37 0.25c-281.47,0.13 -562.96,0.05 -844.43,-0.06 -226.78,-0.08 -587.65,36.36 -770.09,-64.3 -211.36,-116.61 -287.84,-311.87 -286.81,-550.85 1.21,-278.08 -0.72,-556.41 -0.45,-834.53l0.4 -5881.24c-0.23,-144.36 -10.06,-234.84 50.64,-361.51 181.51,-378.76 567.66,-311.71 946.7,-311.76 276.36,-0.05 556.27,-4.32 832.2,0.88 4.59,85.08 -14.58,276.49 9.25,339.34zm1668.11 -1304.4c167.22,-48.4 305.77,59.07 347.79,190.88 104.41,327.52 -427.02,523.63 -549.34,152.44 -55.97,-169.86 69.32,-305.05 201.55,-343.33zm-1675.05 455.99c-155.76,11.75 -751.84,2.59 -953.71,2.49 -356.23,-0.18 -555.66,-31.25 -846.15,114 -111.79,55.89 -199.81,134.07 -269.91,207.18 -67.41,70.32 -148.82,210.1 -187.61,300.1 -102.74,238.38 -69.89,601.84 -69.72,895.47l0.09 5771.95c0.69,255.2 -25.65,725.41 27.43,939.53 57.41,231.58 188.75,444.5 383.34,579.41 255.51,177.16 419.56,186.24 773.77,185.85l5771.95 -0.04c302.99,0.09 533.2,-0.41 777.26,-182.32 165.1,-123.05 324.76,-311.53 388.3,-575.04 52.29,-216.87 27.49,-679.83 27.79,-937.45l-0.14 -5771.96c0.28,-301.83 32.57,-641.01 -66.3,-898 -88.01,-228.76 -260.58,-408.61 -453.07,-511.11 -274.93,-146.39 -494.27,-118.01 -842.72,-117.58 -171.32,0.2 -852.98,8.37 -963.65,-1.72 -24.46,-46.35 -40.8,-130.92 -132.7,-177.54 -170.46,-86.47 -755.71,18.72 -901.65,-51.84 -144.05,-69.64 -124.64,-202.34 -229.45,-326.49l-125.9 -112.61c-257.12,-184.27 -616.71,-133.39 -797.5,69.53 -18.27,20.5 -17.53,20.55 -38.16,41.02 -122.5,121.6 -87.46,257.78 -230.58,325.26 -169.99,80.14 -730.21,-32.14 -901.86,51.92 -100.15,49.05 -109.39,122.3 -139.14,179.99z"/>
  <path class="fil2" d="M1935.99 7437.59c21.97,-25.83 30.17,-42.35 54.57,-65.1l163.77 -183.69c45.51,-42.55 128,-35.25 155.75,22.59 34.95,72.87 -26.49,110.1 -56.2,146.37 -23.27,28.41 -27.64,33.99 -56.44,63.09l-389.92 434.63c-113.9,148.27 -183.57,8.39 -205.77,-15.12 -53.09,-56.25 -212.45,-186.4 -204.1,-263.22 4.11,-37.76 21.04,-55.04 44.89,-66.79 105.39,-51.91 163.24,99.43 264.54,176.06l228.91 -248.81zm-594.56 -579.63c-267.77,53.63 -222.81,314.8 -222.26,509.52 0.45,155.3 -19.38,607.8 8.39,728.88 59.7,260.16 314.99,214.33 509.97,214.13 113.05,-0.12 664.46,8.4 728.53,-4.61 239.84,-48.66 218.7,-264.98 218.45,-511.21 -0.13,-120.93 8.89,-657.03 -6.54,-731.75 -53.08,-257.09 -339.97,-213.21 -513.25,-213.44 -168.64,-0.21 -585.94,-19.04 -723.29,8.47z"/>
  <path class="fil3" d="M2158.06 4927.37c78.57,-89.7 207.17,23.47 146.51,108.65 -16.97,23.81 -16.57,7.85 -51.19,56.25l-388.88 436.16c-26.33,33.38 -34.97,23.75 -60.73,57.94 -26.37,35 -68.54,95.21 -146.42,52.43l-113.18 -114.63c-19.04,-19.57 -31.5,-46.41 -51.24,-68.77 -2.6,-2.95 -185.93,-134.23 -49.07,-208.87 103.06,-56.19 173.88,116.09 263.23,179.11l450.98 -498.28zm-800.6 -337.57c-282.35,40.49 -237.94,327.72 -238.43,492.74 -0.39,127.04 -13.83,686.47 11.44,765.07 76.03,236.47 264.69,198.01 487.19,198.76l732.3 -2.32c90.02,-9.67 173.13,-70.05 208.55,-151 45.32,-103.58 26.81,-569.66 26.46,-711.17 -0.65,-253.61 52.12,-464.84 -161.17,-568.44 -95.32,-46.29 -572.35,-26.15 -706.8,-25.87 -98.01,0.21 -272.73,-10.22 -359.54,2.23z"/>
  <path class="fil4" d="M2310.15 2867.06c20.6,37.48 -26.66,70.7 -86.96,139.57l-237.07 259.14c-41.1,46.14 -73.17,85.35 -114.67,134 -21.06,24.66 -42.93,39.66 -65.5,63.03 -97.12,100.6 -78.53,119.11 -203.52,-4.4 -26.47,-26.15 -38.87,-32.16 -62.69,-66.05 -60.78,-86.52 -171.99,-152.58 -140.12,-199.86 -7.66,-119.11 83.06,-161.17 155.51,-94.19 15.58,14.4 21.7,27.61 36.37,43.32l115.58 119.06 429.52 -470.57c115.48,-136.25 200.97,-14.5 173.55,76.94zm-1167.57 827.82c15.48,-27.1 -13.39,-4.46 41.3,54.42 55.2,59.44 53.14,47.31 35.65,60.11 75.98,83.66 171.15,71.46 278.92,71.21l705.35 -0.4c129.84,-0.61 204.14,-0.8 292.34,-65 125.19,-91.11 89.27,-434.55 88.71,-620.23 -0.46,-154.03 30.45,-557.09 -47.98,-660.2 -56.3,-74 -139.14,-113.03 -233.29,-115.07 -118.5,-2.56 -239.27,0.46 -358.08,0.32 -146.47,-0.19 -573.16,-22.67 -675.19,29.32 -71.97,36.67 -130.9,94.47 -147.23,200.83l-3.26 971.88c1.96,38.02 -1.5,41.21 22.76,72.81z"/>
  <path class="fil5" d="M3123.67 4886.46c-63.84,21.36 -100.11,99.34 -67.66,177.54 30.93,74.53 102.96,70.14 200.83,70.26 579.32,0.67 3640.32,15.44 3707.55,-9.36 89.05,-32.84 179.68,-249.68 -131.11,-248.57 -442.48,1.57 -3630.66,-16.29 -3709.62,10.13z"/>
  <path class="fil5" d="M3149.17 2714.2c-71.05,16.22 -123.27,70.18 -100.46,160.45 22.25,87.97 77.59,93.58 178.25,93.71 178.82,0.23 357.74,0.39 536.57,-0.12 234.91,-0.66 3103.57,12.82 3185.32,-4.72 67.91,-14.58 107.89,-78.03 89.48,-161.96 -18.12,-82.55 -89.5,-88.59 -174.9,-89.35 -178.7,-1.57 -358.02,0.02 -536.79,-0.26 -199.27,-0.32 -3126.48,-9.39 -3177.46,2.25z"/>
  <path class="fil5" d="M3137.96 7144.78c-94.15,26.04 -106.15,108.41 -87.43,169.07 23.69,76.68 95.39,81.65 186.33,81.5 178.83,-0.32 357.74,0.25 536.58,0.05l2125.99 -0.26c131.64,-0.22 1003.75,9.13 1054.8,-5.47 66.69,-19.07 106.12,-83.77 83.58,-166.09 -21.82,-79.67 -94.2,-85.63 -184.59,-85.82 -178.77,-0.39 -357.76,0.14 -536.53,0.36 -219.71,0.28 -3110,-12.36 -3178.73,6.65z"/>
  <path class="fil5" d="M3126.53 7789.89c-116.41,40.5 -101.5,201.74 -11.49,237.11 53.58,21.05 1021.46,9.22 1125.33,9.69 193.81,0.89 1430.24,19.67 1513.55,-9.14 106.8,-36.91 99.95,-195.95 8.65,-236.01 -47.79,-20.96 -299.27,-12.26 -369.8,-11.97 -345.56,1.47 -2192.12,-15.48 -2266.24,10.31z"/>
  <path class="fil5" d="M3136.37 5525.13c-136.37,41.58 -106.84,190.21 -27.45,232.46 66.6,35.44 1005.11,16.76 1121.52,16.94 178.5,0.28 1455.06,12.37 1517.2,-7.37 106.6,-33.85 104.25,-199.17 20.43,-236.14 -64.73,-28.56 -1008.11,-13.7 -1120.38,-13.65 -177.79,0.11 -1451.13,-10.6 -1511.32,7.76z"/>
  <path class="fil5" d="M3134.67 3358.77c-52.24,16.67 -84.93,44.02 -90.96,104.81 -19.45,196.05 255.91,145.69 421.78,145.08 254.79,-0.93 2204.25,13.53 2275.04,-5.98 108.81,-30 122.43,-187.9 33.53,-232.98 -69.15,-35.06 -1008.25,-17.38 -1126.37,-17.6 -169.19,-0.32 -1462.87,-9.3 -1513.02,6.69z"/>
  <path class="fil6" d="M2339.9 1630.04c5.48,121.61 127.06,212.3 270.79,211.77l2921.38 -0.33c79.04,0.33 135.16,-7.67 189.58,-45.75 37.41,-26.18 91.16,-85.94 94.37,-153.49 2.79,-27.83 6.9,-28.58 10.33,-65.84 -2.8,2.34 -6.41,2.31 -7.89,7.58 -1.42,5.08 -5.59,5.29 -7.44,7.45l-38.2 56.66c-55.37,78.99 -160.49,98.14 -260.82,97.01 -945.79,-10.51 -1920.48,11.04 -2861.15,0.39 -206.89,-2.35 -218.25,-41.54 -295.22,-153.61l-15.73 38.15z"/>
  <path class="fil0" d="M4008 325.64c-132.23,38.28 -257.52,173.47 -201.55,343.33 122.31,371.18 653.74,175.08 549.34,-152.44 -42.02,-131.82 -180.57,-239.29 -347.79,-190.88z"/>
  <path class="fil0" d="M1707.07 7686.41c-101.3,-76.63 -159.14,-227.97 -264.54,-176.06 -23.85,11.75 -40.79,29.03 -44.89,66.79 -8.35,76.82 151,206.97 204.1,263.22 22.2,23.51 91.87,163.39 205.77,15.12l389.92 -434.63c28.79,-29.1 33.17,-34.68 56.44,-63.09 29.71,-36.27 91.16,-73.5 56.2,-146.37 -27.75,-57.84 -110.24,-65.13 -155.75,-22.59l-163.77 183.69c-24.41,22.75 -32.61,39.27 -54.57,65.1l-228.91 248.81z"/>
  <path class="fil0" d="M1399.62 3192.49l152.67 177.46c29.1,28.22 35.32,27.83 59.15,59.71 101.61,135.92 168.35,25.34 205.15,-16 21.17,-23.77 39.01,-37.15 58.76,-60.11l434.8 -486.49c27.42,-91.44 -58.07,-213.19 -173.55,-76.94l-429.52 470.57 -115.58 -119.06c-14.68,-15.71 -20.79,-28.92 -36.37,-43.32 -72.44,-66.99 -163.17,-24.92 -155.51,94.19z"/>
  <path class="fil0" d="M1707.07 5425.66c-89.35,-63.02 -160.18,-235.31 -263.23,-179.11 -136.86,74.64 46.47,205.93 49.07,208.87 19.74,22.36 32.2,49.2 51.24,68.77l113.18 114.63c77.89,42.78 120.06,-17.42 146.42,-52.43 25.77,-34.19 34.4,-24.56 60.73,-57.94l388.88 -436.16c34.63,-48.4 34.23,-32.44 51.19,-56.25 60.66,-85.19 -67.94,-198.36 -146.51,-108.65l-450.98 498.28z"/>
  <path class="fil7" d="M1399.62 3192.49c-31.87,47.28 79.34,113.34 140.12,199.86 23.82,33.89 36.22,39.89 62.69,66.05 124.99,123.51 106.4,105 203.52,4.4 22.56,-23.37 44.44,-38.37 65.5,-63.03 41.5,-48.65 73.57,-87.86 114.67,-134l237.07 -259.14c60.3,-68.88 107.56,-102.09 86.96,-139.57l-434.8 486.49c-19.75,22.96 -37.59,36.34 -58.76,60.11 -36.8,41.35 -103.54,151.93 -205.15,16 -23.83,-31.88 -30.05,-31.49 -59.15,-59.71l-152.67 -177.46z"/>
  <path class="fil7" d="M1219.53 3809.41c17.49,-12.8 19.55,-0.67 -35.65,-60.11 -54.69,-58.88 -25.83,-81.53 -41.3,-54.42 5.32,48.26 49.22,99.21 76.95,114.53z"/>
 </g>
</svg>
