<?xml version="1.0" encoding="UTF-8"?>
<!DOCTYPE svg PUBLIC "-//W3C//DTD SVG 1.1//EN" "http://www.w3.org/Graphics/SVG/1.1/DTD/svg11.dtd">
<!-- Creator: CorelDRAW -->
<svg xmlns="http://www.w3.org/2000/svg" xml:space="preserve" width="6.4912mm" height="24.6591mm" version="1.1" style="shape-rendering:geometricPrecision; text-rendering:geometricPrecision; image-rendering:optimizeQuality; fill-rule:evenodd; clip-rule:evenodd"
viewBox="0 0 7843.57 29796.57"
 xmlns:xlink="http://www.w3.org/1999/xlink"
 xmlns:xodm="http://www.corel.com/coreldraw/odm/2003">
 <defs>
  <style type="text/css">
   <![CDATA[
    .fil0 {fill:#2B2A29;fill-rule:nonzero}
   ]]>
  </style>
 </defs>
 <g id="Layer_x0020_1">
  <metadata id="CorelCorpID_0Corel-Layer"/>
  <path class="fil0" d="M5975 20674.33l-4021.23 0c-227.29,-3324.99 -404.91,-5541.57 -539.89,-6635.72l-1285.91 -8425.99c-85.31,-674.98 -127.96,-1221.99 -127.96,-1641.17 0,-689.12 177.63,-1349.96 525.75,-1960.89 355.25,-618.07 838.35,-1108.29 1456.53,-1470.67 618.07,-362.26 1257.52,-539.89 1918.24,-539.89 667.85,0 1314.31,184.63 1939.51,554.14 632.32,362.26 1122.55,859.61 1477.8,1484.81 348.12,625.19 525.75,1278.91 525.75,1975.15 0,539.89 -71.05,1236.13 -206.02,2081.61 -682.11,4021.23 -1136.81,7083.29 -1371.22,9193.29 -163.37,1577.25 -262.93,3374.77 -291.33,5385.33zm-2060.34 1449.28c1079.89,0 1996.42,376.64 2749.46,1122.55 760.29,753.16 1136.81,1655.43 1136.81,2713.93 0,1058.63 -376.52,1960.89 -1136.81,2714.05 -753.04,745.91 -1669.56,1122.43 -2749.46,1122.43 -1072.76,0 -1982.16,-376.52 -2735.2,-1122.43 -760.29,-753.16 -1136.81,-1655.43 -1136.81,-2714.05 0,-1058.51 376.52,-1960.77 1136.81,-2713.93 753.04,-745.91 1662.43,-1122.55 2735.2,-1122.55z"/>
 </g>
</svg>
