<?xml version="1.0" encoding="UTF-8"?>
<!DOCTYPE svg PUBLIC "-//W3C//DTD SVG 1.1//EN" "http://www.w3.org/Graphics/SVG/1.1/DTD/svg11.dtd">
<!-- Creator: CorelDRAW -->
<svg xmlns="http://www.w3.org/2000/svg" xml:space="preserve" width="5.5387mm" height="23.8478mm" version="1.1" style="shape-rendering:geometricPrecision; text-rendering:geometricPrecision; image-rendering:optimizeQuality; fill-rule:evenodd; clip-rule:evenodd"
viewBox="0 0 30.5 131.31"
 xmlns:xlink="http://www.w3.org/1999/xlink"
 xmlns:xodm="http://www.corel.com/coreldraw/odm/2003">
 <defs>
  <style type="text/css">
   <![CDATA[
    .fil0 {fill:#2B2A29;fill-rule:nonzero}
   ]]>
  </style>
 </defs>
 <g id="Layer_x0020_1">
  <metadata id="CorelCorpID_0Corel-Layer"/>
  <path class="fil0" d="M12.21 94.99l-11.62 -72.87c-0.19,-1.26 -0.32,-2.43 -0.42,-3.5 -0.1,-1.1 -0.16,-2.04 -0.16,-2.85 0,-4.95 1.33,-8.81 3.98,-11.59 2.66,-2.78 6.38,-4.18 11.17,-4.18 4.79,0 8.55,1.39 11.27,4.18 2.72,2.78 4.08,6.64 4.08,11.59 0,0.81 -0.06,1.75 -0.16,2.85 -0.1,1.07 -0.23,2.23 -0.42,3.5l-11.82 72.87 -5.89 0zm2.95 36.32c-4.11,0 -7.58,-1.42 -10.46,-4.27 -2.88,-2.85 -4.31,-6.31 -4.31,-10.46 0,-4.18 1.42,-7.67 4.31,-10.52 2.88,-2.85 6.35,-4.27 10.46,-4.27 4.05,0 7.51,1.42 10.42,4.31 2.88,2.88 4.34,6.38 4.34,10.49 0,4.08 -1.46,7.54 -4.34,10.42 -2.91,2.88 -6.38,4.31 -10.42,4.31z"/>
 </g>
</svg>
