<?xml version="1.0" encoding="UTF-8"?>
<!DOCTYPE svg PUBLIC "-//W3C//DTD SVG 1.1//EN" "http://www.w3.org/Graphics/SVG/1.1/DTD/svg11.dtd">
<!-- Creator: CorelDRAW -->
<svg xmlns="http://www.w3.org/2000/svg" xml:space="preserve" width="5.421mm" height="24.912mm" version="1.1" style="shape-rendering:geometricPrecision; text-rendering:geometricPrecision; image-rendering:optimizeQuality; fill-rule:evenodd; clip-rule:evenodd"
viewBox="0 0 22.59 103.83"
 xmlns:xlink="http://www.w3.org/1999/xlink"
 xmlns:xodm="http://www.corel.com/coreldraw/odm/2003">
 <defs>
  <style type="text/css">
   <![CDATA[
    .fil0 {fill:#2B2A29;fill-rule:nonzero}
   ]]>
  </style>
 </defs>
 <g id="Layer_x0020_1">
  <metadata id="CorelCorpID_0Corel-Layer"/>
  <path class="fil0" d="M8.04 72.02c-0.39,-1.96 -0.91,-6.1 -1.59,-12.42 -0.66,-6.32 -1.62,-13.65 -2.87,-21.96 -2.16,-14.41 -3.23,-23.74 -3.23,-28.01 0,-0.66 0.02,-1.67 0.07,-3.01 1.1,-0.71 6,-2.92 14.73,-6.62l7.4 0.07c0.02,1.45 0.05,2.4 0.05,2.89 0,3.43 -0.51,8.92 -1.57,16.44l-3.38 24.26 -3.5 25.83 -5.46 3.01 -0.64 -0.49zm3.16 9.19c3.01,0 5.61,1.08 7.82,3.26 2.21,2.18 3.31,4.85 3.31,8.01 0,3.11 -1.1,5.78 -3.28,8.01 -2.16,2.21 -4.78,3.33 -7.84,3.33 -3.11,0 -5.76,-1.1 -7.94,-3.31 -2.18,-2.21 -3.26,-4.88 -3.26,-8.04 0,-3.06 1.08,-5.71 3.26,-7.94 2.18,-2.23 4.83,-3.33 7.94,-3.33z"/>
 </g>
</svg>
