<?xml version="1.0" encoding="UTF-8"?>
<!DOCTYPE svg PUBLIC "-//W3C//DTD SVG 1.1//EN" "http://www.w3.org/Graphics/SVG/1.1/DTD/svg11.dtd">
<!-- Creator: CorelDRAW -->
<svg xmlns="http://www.w3.org/2000/svg" xml:space="preserve" width="218.284mm" height="285.736mm" version="1.1" style="shape-rendering:geometricPrecision; text-rendering:geometricPrecision; image-rendering:optimizeQuality; fill-rule:evenodd; clip-rule:evenodd"
viewBox="0 0 21822.54 28565.95"
 xmlns:xlink="http://www.w3.org/1999/xlink"
 xmlns:xodm="http://www.corel.com/coreldraw/odm/2003">
 <defs>
  <style type="text/css">
   <![CDATA[
    .fil6 {fill:#FEFEFE}
    .fil4 {fill:#228DDD}
    .fil3 {fill:#8DC248}
    .fil2 {fill:#F24630}
    .fil1 {fill:#FEA632}
    .fil5 {fill:#FEFEFE;fill-rule:nonzero}
    .fil0 {fill:#2B2A29;fill-rule:nonzero}
   ]]>
  </style>
 </defs>
 <g id="Layer_x0020_1">
  <metadata id="CorelCorpID_0Corel-Layer"/>
  <g id="_1545505500416">
   <path class="fil0" d="M936.97 28497.61l0 -5980.32 1384.02 0 0 4852.6 2998.69 0 0 1127.73 -4382.71 0zm7885.46 0l0 -897.06 -85.44 -196.5 0 -1606.13c0,-284.77 -86.87,-506.89 -260.57,-666.39 -173.71,-159.47 -439.98,-239.2 -798.79,-239.2 -244.9,0 -485.55,38.44 -721.92,115.33 -236.36,76.89 -437.14,180.83 -602.31,311.85l-478.43 -931.23c250.62,-176.56 552.47,-313.25 905.61,-410.09 353.11,-96.82 711.93,-145.23 1076.45,-145.23 700.55,0 1244.48,165.19 1631.75,495.51 387.31,330.35 580.95,845.78 580.95,1546.34l0 2622.8 -1247.32 0zm-1401.1 68.34c-358.83,0 -666.39,-61.22 -922.68,-183.69 -256.29,-122.45 -452.79,-289.03 -589.49,-499.78 -136.68,-210.73 -205.02,-447.09 -205.02,-709.1 0,-273.37 66.91,-512.58 200.77,-717.63 133.84,-205.04 346.01,-365.95 636.47,-482.7 290.46,-116.75 669.22,-175.13 1136.27,-175.13l1221.69 0 0 777.44 -1076.46 0c-313.25,0 -528.28,51.27 -645.03,153.78 -116.75,102.51 -175.13,230.67 -175.13,384.45 0,170.87 66.91,306.13 200.76,405.81 133.85,99.67 317.53,149.52 551.06,149.52 222.12,0 421.46,-52.71 598.02,-158.07 176.57,-105.37 304.7,-260.58 384.45,-465.61l205.05 615.11c-96.84,296.16 -273.4,521.13 -529.71,674.92 -256.29,153.78 -586.64,230.67 -991.01,230.67zm6569.79 0c-404.37,0 -751.8,-85.45 -1042.26,-256.29 -290.48,-170.88 -512.6,-431.43 -666.38,-781.71 -153.78,-350.28 -230.67,-793.12 -230.67,-1328.48 0,-541.08 81.15,-985.33 243.47,-1332.77 162.33,-347.42 388.72,-606.57 679.2,-777.42 290.46,-170.87 629.36,-256.31 1016.64,-256.31 432.88,0 821.6,96.81 1166.19,290.48 344.56,193.64 617.94,467.03 820.14,820.14 202.19,353.14 303.29,771.75 303.29,1255.88 0,478.41 -101.1,894.2 -303.29,1247.31 -202.2,353.14 -475.58,627.93 -820.14,824.43 -344.59,196.5 -733.3,294.75 -1166.19,294.75zm-2716.76 -68.34l0 -6339.13 1332.75 0 0 2674.04 -85.42 1358.4 25.62 1366.91 0 939.78 -1272.96 0zm2486.09 -1025.19c222.15,0 420.05,-51.27 593.76,-153.78 173.73,-102.53 313.28,-249.19 418.65,-439.97 105.36,-190.81 158.04,-417.22 158.04,-679.2 0,-267.7 -52.68,-495.51 -158.04,-683.49 -105.37,-187.95 -244.91,-333.18 -418.65,-435.69 -173.71,-102.53 -371.61,-153.78 -593.76,-153.78 -222.12,0 -421.45,51.25 -598.02,153.78 -176.56,102.51 -316.11,247.74 -418.62,435.69 -102.53,187.98 -153.78,415.79 -153.78,683.49 0,261.98 51.25,488.39 153.78,679.2 102.51,190.78 242.06,337.44 418.62,439.97 176.57,102.51 375.9,153.78 598.02,153.78zm4955.14 1093.54c-393,0 -770.33,-46.99 -1131.99,-140.97 -361.68,-93.96 -647.89,-212.14 -858.6,-354.54l444.24 -956.84c210.73,130.99 459.91,237.79 747.54,320.37 287.62,82.58 570.97,123.87 850.07,123.87 307.56,0 525.39,-37 653.54,-111.06 128.17,-74.03 192.24,-176.54 192.24,-307.56 0,-108.2 -49.84,-189.38 -149.52,-243.47 -99.67,-54.11 -232.1,-95.39 -397.25,-123.88 -165.19,-28.48 -346.02,-56.95 -542.51,-85.44 -196.5,-28.48 -394.4,-66.91 -593.76,-115.32 -199.33,-48.44 -381.59,-121.04 -546.77,-217.86 -165.17,-96.82 -297.58,-227.84 -397.26,-392.99 -99.65,-165.17 -149.49,-378.76 -149.49,-640.74 0,-290.49 84.01,-546.78 252.03,-768.9 168.01,-222.14 411.49,-397.28 730.43,-525.41 318.96,-128.17 700.55,-192.24 1144.79,-192.24 313.28,0 632.22,34.17 956.87,102.53 324.63,68.34 595.16,168.02 811.59,299.01l-444.24 948.3c-222.12,-130.98 -445.67,-220.69 -670.65,-269.1 -224.97,-48.41 -442.83,-72.63 -653.57,-72.63 -296.15,0 -512.57,39.87 -649.29,119.61 -136.68,79.75 -205.02,182.26 -205.02,307.56 0,113.92 49.82,199.34 149.5,256.29 99.67,56.96 232.1,102.54 397.25,136.71 165.19,34.17 346.02,64.07 542.51,89.7 196.5,25.62 394.4,64.08 593.76,115.33 199.34,51.27 380.16,123.89 542.49,217.85 162.33,93.98 294.74,222.12 397.25,384.45 102.54,162.33 153.78,374.5 153.78,636.48 0,284.77 -85.41,536.8 -256.29,756.09 -170.85,219.28 -417.19,391.56 -738.98,516.87 -321.8,125.3 -713.37,187.95 -1174.7,187.95z"/>
   <g>
    <path class="fil1" d="M9404.99 1194.39c-2028.41,175.04 -3778.81,772.24 -5457.13,1925.44 -710.45,494.24 -1379.73,1091.43 -1946.03,1750.4 -525.13,617.79 -1132.62,1554.77 -1369.43,2327.01 -329.49,1070.84 -257.42,1935.74 525.12,2780.05 586.89,648.68 1544.47,1081.13 2357.9,1338.54 1050.24,319.19 2182.85,432.45 3263.98,432.45 566.31,0 1163.5,-61.78 1719.51,-123.56 195.64,-20.59 1503.29,-216.23 1585.66,-267.71 10.29,-72.08 -278.01,-1534.18 -319.19,-1740.1 -123.56,-556.01 -308.9,-1276.77 -164.75,-1843.08 72.08,-257.41 216.22,-504.52 504.52,-525.12 329.49,-30.89 566.31,123.56 864.91,164.75 751.65,102.96 854.61,-648.68 875.21,-1204.69 -92.68,-288.3 -72.08,-463.35 -267.71,-731.05 -442.75,-617.78 -957.57,-102.96 -1472.4,-102.96 -257.41,-10.3 -494.23,-195.64 -545.71,-453.05 -82.37,-401.56 -30.88,-1451.8 -30.88,-1925.44 0,-329.48 10.29,-669.27 0,-988.46l-10.3 -710.45c0,-154.45 0,-113.26 -113.27,-102.97z"/>
    <path class="fil2" d="M3875.78 12057.18c-1163.51,-267.71 -2275.53,-751.65 -3130.13,-1595.96 -278.01,-278.01 -411.86,-566.3 -658.97,-854.6 -175.04,1925.44 -133.85,3665.55 586.89,5488.02 1194.4,2985.98 3634.66,5096.76 6744.2,5899.89 432.45,113.26 895.79,195.64 1328.24,257.41 504.53,72.08 978.17,72.08 1482.69,123.56 823.72,82.38 638.39,-298.6 617.79,-936.98 -10.3,-247.11 0,-525.12 0,-782.53 0,-257.41 -10.3,-514.82 0,-772.23 10.3,-205.93 51.49,-597.2 -41.19,-772.24 -92.67,-205.92 -350.08,-92.67 -514.82,-51.48 -422.16,113.26 -834.02,-20.59 -1142.91,-339.79 -782.53,-834.02 -556.01,-3243.39 875.21,-2913.9 164.75,30.88 453.05,144.14 556.01,-41.19 92.67,-164.75 30.89,-514.82 -10.3,-700.16 -41.19,-226.52 -72.07,-442.75 -102.96,-669.27 -41.19,-226.52 -102.97,-442.75 -133.85,-669.27 -92.68,-597.2 -20.59,-834.02 -710.46,-638.39 -391.26,113.27 -967.87,175.04 -1390.03,216.23 -1431.21,144.15 -2955.09,82.37 -4355.41,-247.11z"/>
    <path class="fil3" d="M11618.73 21313.72c1009.06,-30.89 2234.34,-391.26 3161.02,-803.12 864.91,-380.98 1698.92,-967.87 2378.49,-1606.26 1462.1,-1400.31 2388.78,-3284.57 2687.38,-5282.09 41.19,-288.3 92.68,-617.78 102.96,-906.09l30.89 -463.35c0,-175.03 -20.59,-329.48 -133.85,-380.97 -82.37,-41.19 -720.76,-123.56 -864.9,-144.15 -473.64,-61.77 -1369.43,-113.26 -1853.37,-123.56 -267.71,-10.3 -689.86,51.49 -926.68,-51.49 -257.41,-123.56 -329.49,-391.26 -267.71,-658.97 72.07,-267.71 226.52,-504.52 61.77,-792.83 -257.41,-432.45 -1091.43,-483.93 -1534.17,-401.56 -957.57,164.75 -607.5,844.31 -566.31,1214.98 113.26,823.72 -689.86,689.86 -1235.58,720.76 -607.5,30.89 -1163.51,102.96 -1760.7,226.52 123.56,741.35 535.42,2563.82 422.15,3243.39 -51.48,257.41 -195.63,422.16 -453.04,473.64 -257.41,41.19 -525.12,-82.38 -772.24,-133.85 -597.19,-144.15 -731.04,679.57 -710.45,1101.72 10.3,236.82 92.67,494.23 236.82,689.86 195.63,257.41 380.97,247.11 658.97,164.74 504.52,-154.44 1029.65,-308.89 1214.98,350.09 154.45,556.01 123.56,1976.92 123.56,2656.49 -10.3,288.3 -30.88,628.09 0,906.1z"/>
    <path class="fil4" d="M12473.34 6126.41c51.49,556.01 10.3,1163.51 -380.97,1595.96 -463.35,504.52 -957.57,422.15 -1534.18,247.11 -391.26,-102.97 -329.49,391.26 -267.71,617.78 123.56,514.82 216.22,1184.09 350.08,1709.22 20.59,133.85 123.57,792.83 175.04,844.3 82.38,0 442.75,-92.67 576.61,-102.96 195.64,-20.59 391.26,-61.77 586.9,-82.37 205.92,-20.59 422.16,-30.89 628.08,-51.49 113.26,-10.3 545.71,-10.3 628.08,-41.19 61.78,-72.07 -10.29,-288.29 -30.88,-380.97 -144.15,-1081.13 679.57,-1482.69 1678.32,-1472.39 545.71,10.3 926.69,123.56 1369.43,453.05 164.75,123.56 308.9,350.08 370.68,545.71 123.56,380.97 -10.3,772.23 10.3,792.83 72.07,82.37 432.45,41.19 556.01,41.19 319.18,0 844.3,30.88 1173.79,61.77l1606.25 288.3 1853.37 -11192.28 -11624.73 1184.1c-20.59,20.58 -20.59,2450.56 -10.3,2800.64 10.3,205.92 -82.38,700.16 226.52,700.16 144.15,0 422.16,-144.15 813.42,-123.56 257.41,20.59 453.05,123.56 638.38,298.6 329.49,308.89 586.9,813.42 607.5,1266.46z"/>
    <path class="fil5" d="M5640.16 18539.72c-406.93,0 -796.88,-54.48 -1169.91,-163.48 -373,-109.01 -673.35,-250.69 -901.02,-425.1l399.65 -886.5c217.99,155.02 475.95,282.18 773.85,381.49 297.93,99.32 599.5,148.96 904.67,148.96 232.53,0 420.26,-23 563.16,-69.02 142.91,-46.01 248.26,-110.21 316.08,-192.57 67.82,-82.35 101.73,-176.8 101.73,-283.37 0,-135.63 -53.3,-243.42 -159.87,-323.36 -106.57,-79.92 -247.04,-145.32 -421.45,-196.2 -174.39,-50.86 -366.94,-99.29 -577.67,-145.31 -210.71,-46.04 -421.45,-102.95 -632.16,-170.77 -210.73,-67.81 -403.3,-155.02 -577.68,-261.59 -174.39,-106.57 -316.09,-247.04 -425.09,-421.45 -108.98,-174.38 -163.49,-397.22 -163.49,-668.5 0,-290.65 78.7,-555.88 236.15,-795.68 157.43,-239.78 394.81,-431.13 712.11,-574.04 317.3,-142.91 715.74,-214.36 1195.32,-214.36 319.71,0 634.59,37.55 944.62,112.63 310.04,75.08 583.74,187.73 821.11,337.88l-363.32 893.77c-237.37,-135.63 -474.73,-236.15 -712.1,-301.55 -237.37,-65.39 -469.89,-98.1 -697.58,-98.1 -227.66,0 -414.18,26.65 -559.49,79.94 -145.34,53.29 -249.5,122.31 -312.47,207.09 -62.96,84.78 -94.46,182.86 -94.46,294.27 0,130.79 53.29,236.18 159.87,316.1 106.57,79.94 247.06,144.12 421.45,192.57 174.39,48.44 366.94,96.88 577.67,145.31 210.73,48.45 421.45,104.16 632.18,167.13 210.71,62.99 403.28,147.77 577.68,254.34 174.37,106.57 316.07,247.05 425.07,421.45 109.01,174.38 163.51,394.79 163.51,661.24 0,285.79 -79.94,547.38 -239.8,784.77 -159.86,237.37 -398.44,428.69 -715.75,574.04 -317.28,145.34 -718.16,217.98 -1202.57,217.98z"/>
    <polygon class="fil5" points="2817.17,9944.21 2817.17,4857.75 3790.86,4857.75 5956.24,8447.34 5440.32,8447.34 7569.37,4857.75 8535.81,4857.75 8550.32,9944.21 7445.84,9944.21 7438.57,6550.82 7642.04,6550.82 5941.7,9406.49 5411.26,9406.49 3674.59,6550.82 3921.66,6550.82 3921.66,9944.21 "/>
    <path class="fil5" d="M13654.2 17202.74l-65.4 -1358.83 2434.25 -2565.04 1307.95 0 -2194.45 2361.58 -653.97 697.58 -828.37 864.71zm-1053.61 1162.61l0 -5086.47 1169.88 0 0 5086.47 -1169.88 0zm3480.58 0l-1809.31 -2216.25 770.23 -835.64 2412.43 3051.88 -1373.35 0z"/>
    <g>
     <path class="fil6" d="M18473.03 8407.83c25.23,-16.67 57.54,-55.19 76.37,-77.37l192 -271.28c209.41,-351.82 249.14,-564.79 -14.26,-894.28 -67.88,-84.91 -258.42,-251.65 -351.35,-282.57 -8.98,10.67 -8.7,9.6 -17.26,26.1l-97.61 178.99c-52.44,90.92 -257.94,418.49 -319.11,494.66 -125.68,156.52 -106.77,192.4 35.92,296.83 157.17,115.04 441.42,317.11 495.3,528.92z"/>
     <path class="fil6" d="M12303.07 9841.24l297.51 -735.4c171.13,-401.71 337.75,-683.97 539.84,-1044.4 281.29,-501.72 796.18,-1135.12 1216.33,-1525.74 449.32,-417.74 1301.04,-1037.75 1995.31,-821.56 409.44,127.51 614.48,417.18 1068.74,540.01 614.22,166.09 1227.34,-198.53 1605.79,-615.37 529.51,-583.25 857.53,-1348.28 1065.78,-2098.32 119.89,-431.78 253.8,-1269.29 140.15,-1777.63 -118.93,565.44 -222.57,991.51 -484.75,1519.1 -176.97,356.12 -547.06,935.34 -1079.65,1124.19 -358.64,127.17 -625.73,74.11 -906.52,-32.04 -249.95,-94.46 -467.52,-228.19 -730.83,-318.47 -872.34,-299.09 -1790.73,341.65 -2343,916.43 -174.04,181.14 -294.37,308.6 -455.18,501.01 -60.76,72.74 -119.8,149.64 -179.36,223.63 -36.09,56.39 -77.39,102.88 -119.36,154.92 -94.61,117.32 -397.27,564.09 -483.17,715.66l-150.32 251c-30.2,57.61 -58.13,103.54 -91.64,164.69 -32.8,59.87 -60.26,115.47 -90.71,173.54 -290.32,553.99 -544.7,1222.65 -688.76,1837.63 -48.09,205.28 -134.28,630.47 -126.23,847.14z"/>
    </g>
   </g>
  </g>
 </g>
</svg>
